<?xml version="1.0" standalone="no"?>
<!DOCTYPE svg PUBLIC "-//W3C//DTD SVG 20010904//EN"
 "http://www.w3.org/TR/2001/REC-SVG-20010904/DTD/svg10.dtd">
<svg version="1.0" xmlns="http://www.w3.org/2000/svg"
 width="3467.000000pt" height="1735.000000pt" viewBox="0 0 3467.000000 1735.000000"
 preserveAspectRatio="xMidYMid meet">
<metadata>
Created by potrace 1.16, written by Peter Selinger 2001-2019
</metadata>
<g transform="translate(0.000000,1735.000000) scale(0.100000,-0.100000)"
fill="#000000" stroke="none">
<path d="M8668 13014 c-4768 -2384 -8668 -4336 -8668 -4339 0 -3 3901 -1956
8670 -4340 l8670 -4335 3465 1732 3465 1733 3465 -1733 3465 -1732 1735 867
c954 478 1735 871 1735 875 0 5 -1556 786 -3457 1737 l-3458 1729 3458 1728
c1901 951 3457 1732 3457 1736 0 5 -1555 785 -3455 1735 -1900 951 -3455 1730
-3455 1733 0 3 1555 782 3455 1733 1900 950 3455 1730 3455 1735 0 4 -780 397
-1732 873 l-1733 866 -3467 -1733 -3468 -1734 -3467 1734 -3468 1734 -8667
-4334z m12112 -874 c0 -3 -1555 -782 -3455 -1733 -1900 -950 -3455 -1730
-3455 -1735 0 -4 1556 -785 3457 -1736 l3458 -1728 -1725 -863 -1725 -863
-5192 2597 -5193 2596 5192 2596 5193 2596 1722 -861 c948 -473 1723 -863
1723 -866z m5218 -2603 l1722 -862 -1725 -863 -1725 -862 -1725 862 -1725 863
1722 862 c948 474 1725 862 1728 862 3 0 780 -388 1728 -862z"/>
</g>
</svg>
